<svg width="320" height="280" viewBox="0 0 320 280" fill="none" xmlns="http://www.w3.org/2000/svg"><rect width="320" height="280" fill="none"/><circle cx="160" cy="120" r="100" fill="#F8FAFC"/><g opacity="0.3"><path d="M40 140 Q80 125 120 135 Q160 145 200 135 Q240 125 280 140" stroke="#3B82F6" stroke-width="8" fill="none" stroke-dasharray="10 6"/><circle cx="40" cy="140" r="6" fill="#3B82F6"/><circle cx="280" cy="140" r="6" fill="#3B82F6"/></g><g transform="translate(130, 50)"><path d="M-20 10 L0 0 L20 10 L0 20 Z" fill="none" stroke="#3B82F6" stroke-width="3.5" stroke-linecap="round" stroke-linejoin="round"/><path d="M-20 22 L0 12 L20 22 L0 32 Z" fill="none" stroke="#000000" stroke-width="3.5" stroke-linecap="round" stroke-linejoin="round"/><path d="M-20 34 L0 24 L20 34 L0 44 Z" fill="none" stroke="#3B82F6" stroke-width="3.5" stroke-linecap="round" stroke-linejoin="round"/></g><g transform="translate(190, 65)"><circle cx="0" cy="0" r="18" stroke="#3B82F6" stroke-width="4" fill="none"/><circle cx="0" cy="0" r="12" stroke="#3B82F6" stroke-width="2" fill="none" opacity="0.4"/><circle cx="0" cy="0" r="6" stroke="#3B82F6" stroke-width="1.5" fill="none" opacity="0.3"/><line x1="13" y1="13" x2="26" y2="26" stroke="#3B82F6" stroke-width="4" stroke-linecap="round"/></g><text x="160" y="150" font-size="72" font-weight="900" font-family="system-ui, -apple-system, sans-serif" text-anchor="middle"><tspan fill="#3B82F6">R</tspan><tspan fill="#000000">I</tspan><tspan fill="#3B82F6">V</tspan><tspan fill="#000000">US</tspan></text><text x="160" y="180" font-size="12" font-weight="500" fill="#64748B" font-family="system-ui, -apple-system, sans-serif" text-anchor="middle">Data Flows Into Intelligence</text></svg>